<?xml version="1.0" encoding="UTF-8"?>
<svg width="24px" height="24px" viewBox="0 0 24 24" version="1.1" xmlns="http://www.w3.org/2000/svg" xmlns:xlink="http://www.w3.org/1999/xlink">
    <title>38D985AE-5EC4-4CC9-B571-448011A8EA3C</title>
    <g id="Icons" stroke="none" stroke-width="1" fill="none" fill-rule="evenodd">
        <g id="icon/24-pixels/navigation/arrow/left" fill="#2167AE" fill-rule="nonzero">
            <path d="M8,12 C7.99959143,11.8292738 8.06127309,11.6638764 8.17419451,11.5329085 L15.0906604,3.33396215 C15.2519785,3.09759295 15.5375702,2.9704311 15.8275392,3.00586141 C16.1175081,3.04129172 16.3616583,3.23318093 16.4574911,3.50097052 C16.5533239,3.76876012 16.48425,4.06609362 16.2792678,4.26814513 L9.76242,12 L16.2792678,19.7318549 C16.48425,19.9339064 16.5533239,20.2312399 16.4574911,20.4990295 C16.3616583,20.7668191 16.1175081,20.9587083 15.8275392,20.9941386 C15.5375702,21.0295689 15.2519785,20.902407 15.0906604,20.6660378 L8.17419451,12.4670915 C8.06127309,12.3361236 7.99959143,12.1707262 8,12 L8,12 Z" id="Icon"></path>
        </g>
    </g>
</svg>