<?xml version="1.0" encoding="UTF-8"?>
<svg width="30px" height="30px" viewBox="0 0 30 30" version="1.1" xmlns="http://www.w3.org/2000/svg" xmlns:xlink="http://www.w3.org/1999/xlink">
    <title>F4D7492D-BFC2-4C10-9937-76E46B61B6BD</title>
    <g id="Icons" stroke="none" stroke-width="1" fill="none" fill-rule="evenodd">
        <g id="icon/24-pixels/communication/info/01-outline" fill="#a0a0a0" fill-rule="nonzero">
            <path id="Icon" class="st0" d="M15,0c8.3,0,15,6.7,15,15s-6.7,15-15,15S0,23.3,0,15S6.7,0,15,0z M15,2.3C8,2.3,2.3,8,2.3,15
				S8,27.7,15,27.7S27.7,22,27.7,15S22,2.3,15,2.3z M16.9,13.1c0.2,0,0.4,0.2,0.4,0.4v10.4c0,0.1,0,0.2-0.1,0.3
				c-0.1,0.1-0.2,0.1-0.3,0.1h-3.8c-0.2,0-0.4-0.2-0.4-0.4V13.5c0-0.2,0.2-0.4,0.4-0.4H16.9z M15,6.7c1.3,0,2.3,1,2.3,2.3
				s-1,2.3-2.3,2.3s-2.3-1-2.3-2.3S13.7,6.7,15,6.7z"/>
        </g>
    </g>
</svg>
